<?xml version="1.0" encoding="utf-8"?>
<!-- Generator: Adobe Illustrator 21.1.0, SVG Export Plug-In . SVG Version: 6.00 Build 0)  -->
<svg version="1.1" id="Слой_1" xmlns="http://www.w3.org/2000/svg" xmlns:xlink="http://www.w3.org/1999/xlink" x="0px" y="0px"
	 viewBox="0 0 152.6 152.6" style="enable-background:new 0 0 152.6 152.6;" xml:space="preserve">
<style type="text/css">
	.st0{fill-rule:evenodd;clip-rule:evenodd;fill:url(#SVGID_1_);}
	.st1{fill-rule:evenodd;clip-rule:evenodd;fill:#201600;}
	.st2{fill:#FFFFFF;}
</style>
<g>
	<radialGradient id="SVGID_1_" cx="144.9329" cy="7.628" r="156.2552" gradientUnits="userSpaceOnUse">
		<stop offset="0" style="stop-color:#FBB212"/>
		<stop offset="0.1779" style="stop-color:#F49317"/>
		<stop offset="0.406" style="stop-color:#ED711C"/>
		<stop offset="0.6241" style="stop-color:#E85920"/>
		<stop offset="0.8257" style="stop-color:#E54B22"/>
		<stop offset="0.995" style="stop-color:#E44623"/>
	</radialGradient>
	<path class="st0" d="M149.3,152.6H3.3c-1.8,0-3.3-1.5-3.3-3.3V3.3C0,1.5,1.5,0,3.3,0h146.1c1.8,0,3.3,1.5,3.3,3.3v146.1
		C152.6,151.1,151.1,152.6,149.3,152.6z"/>
	<g>
		<path class="st1" d="M9.8,28.6v97.6v2.7h2.8h23.5h2.8v-2.7V94h0c0-0.6,0.2-1.2,0.6-1.7c1-1.3,2.9-1.6,4.3-0.6l51.8,36.8l0.7,0.5
			h0.9h37.4h8.8l-7.1-4.9L67.3,76.6c-0.3-0.2-0.6-0.4-0.8-0.7c-1-1.3-0.7-3.2,0.7-4.1l59.6-41l8.6-6h-8.8H93h-0.9l-0.8,0.6
			L43.9,59.9c-0.5,0.4-1.2,0.7-2,0.7c-1.7,0-3-1.3-3-2.9V28.6v-3.8h-2.8H12.6H9.8V28.6z"/>
		<path class="st2" d="M12.3,28.6v97.6v0.5h0.3h23.5h0.3v-0.5V94c0-0.1,0-0.1,0-0.2c0-0.4,0.1-0.9,0.3-1.3c0.2-0.5,0.4-1,0.8-1.4
			l0-0.1l0.1-0.2l0.1-0.1l0,0c0.9-1,2.1-1.6,3.4-1.8c1.3-0.2,2.7,0.1,3.9,0.8l0.1,0l0,0l0.2,0.1l0.1,0.1l0,0l51.8,36.8l0.1,0h0h37.4
			h1.4l-1.3-0.9L65.8,78.4v0c-0.3-0.2-0.5-0.4-0.8-0.6c-0.2-0.2-0.4-0.4-0.6-0.7c-0.8-1.1-1.1-2.5-0.9-3.8c0.2-1.3,1-2.5,2.2-3.3
			l59.6-41l0,0l2.8-2h-1.4H93h0l-0.1,0l-0.1,0.1L45.6,61.6c-0.5,0.4-1.1,0.7-1.7,0.9c-0.6,0.2-1.3,0.3-2,0.3c-1.6,0-3-0.6-4-1.6
			c-1-0.9-1.6-2.2-1.6-3.6V28.6v-1.5h-0.3H12.6h-0.3V28.6L12.3,28.6z M7.3,126.2V28.6v-3.8c0-1.2,1.1-2.2,2.5-2.2h2.8h23.5h2.8
			c1.4,0,2.5,1,2.5,2.2v3.8v29.1c0,0.2,0.1,0.4,0.2,0.6c0.1,0.1,0.2,0.1,0.3,0.1c0.1,0,0.1,0,0.1,0c0,0,0.1,0,0.2-0.1l0,0l0.1-0.1
			l47.4-34.5l0.1-0.1l0.7-0.5c0.4-0.3,1-0.6,1.7-0.6H93h33.7h8.8v0c0.7,0,1.5,0.3,2,0.9c0.9,1,0.7,2.4-0.4,3.1l-8.6,6l0,0l0,0
			l-59.6,41c-0.2,0.1-0.3,0.3-0.3,0.5c0,0.2,0,0.4,0.1,0.6c0,0,0,0.1,0.1,0.1l0.1,0.1l0,0l0.1,0l68.9,47.4l7,4.8
			c0.7,0.4,1.1,1.1,1.1,1.9c0,1.2-1.1,2.2-2.5,2.2h-8.8H97.2h-0.9v0c-0.5,0-1.1-0.2-1.6-0.5l-0.7-0.5L42.2,93.4l-0.1-0.1
			c-0.1,0-0.1,0-0.2,0c-0.1,0-0.2,0.1-0.3,0.2l-0.1,0.1c0,0.1-0.1,0.1-0.1,0.2c0,0.1,0,0.2,0,0.3l0,0.2v32.1v2.7
			c0,1.2-1.1,2.2-2.5,2.2h-2.8H12.6H9.8c-1.4,0-2.5-1-2.5-2.2V126.2L7.3,126.2z M42.2,93.4L42.2,93.4L42.2,93.4z"/>
	</g>
</g>
</svg>
